<?xml version="1.0" encoding="UTF-8"?><svg id="Layer_1" xmlns="http://www.w3.org/2000/svg" viewBox="0 0 300 300"><defs><style>.cls-1{fill:#e0e2e6;}.cls-2{fill:#173841;}</style></defs><rect class="cls-2" width="300" height="300"/><path class="cls-1" d="m28.89,227.29V74.86c0-1.61,1.17-2.97,2.77-3.18,3.26-.43,8.91-.94,16.98-1.54,11.32-.84,20-1.26,26.03-1.26,41.08,0,61.62,16.69,61.62,50.05,0,17.47-6.48,32.3-19.43,44.46-.85.79-1.11,2.03-.62,3.08l28.6,61.38c.71,1.52-.4,3.27-2.08,3.27h-29.73c-1.46,0-2.78-.85-3.39-2.17l-24.78-53.84c-.23-.49-.75-.75-1.28-.64-1.9.38-3.87.56-5.9.56h-1.76c-4.39-.27-7.77-.72-10.14-1.33-.74-.19-1.43.37-1.43,1.13,0,7.63,0,41.09,0,52.48,0,2.11-1.71,3.81-3.83,3.81h-27.81c-2.11,0-3.83-1.71-3.83-3.83Zm35.47-84.89c0,1.14.76,2.17,1.87,2.45,3.95,1,8.02,1.5,12.22,1.5h1.51c12.74-.17,19.12-9.31,19.12-27.42,0-14.42-6.63-21.63-19.87-21.63-6.39,0-10.74.3-13.05.91-1.08.28-1.79,1.3-1.79,2.42v41.77Z"/><path class="cls-1" d="m269.35,75.85v21.95c0,2.14-.62,4.22-1.81,6-13.85,20.82-35.68,53.2-65.5,97.15-.57.84.02,2,1.04,2h64.09c2.18,0,3.95,1.77,3.95,3.95v20.27c0,2.18-1.77,3.95-3.95,3.95h-108.05c-2.18,0-3.95-1.77-3.95-3.95v-17.61c0-2.18.64-4.29,1.87-6.09,15.11-22.24,38.26-56.03,69.45-101.39.58-.84,0-2.01-1.02-2.01-10.34,0-51.19,0-64.1,0-2.18,0-3.93-1.77-3.93-3.95v-20.27c0-2.18,1.77-3.95,3.95-3.95h104.03c2.18,0,3.95,1.77,3.95,3.95Z"/></svg>