<svg id="Component_9_5" data-name="Component 9 – 5" xmlns="http://www.w3.org/2000/svg" xmlns:xlink="http://www.w3.org/1999/xlink" width="155.159" height="63.566" viewBox="0 0 155.159 63.566">
  <defs>
    <clipPath id="clip-path">
      <rect id="Rectangle_2" data-name="Rectangle 2" width="155.159" height="63.566" fill="#173841"/>
    </clipPath>
  </defs>
  <g id="Group_1" data-name="Group 1" clip-path="url(#clip-path)">
    <path id="Path_1" data-name="Path 1" d="M41.442,64.885Q40.529,71,34.285,74.318q-5.4,2.928-13.467,2.928-11.124,0-16.654-6.31A16.706,16.706,0,0,1,0,59.42a17.013,17.013,0,0,1,2-8.3,1.208,1.208,0,0,1,.814-.594l7.309-1.536a.544.544,0,0,1,.6.771,18.226,18.226,0,0,0-1.879,8.1q0,10.8,11.971,10.8,8.044,0,10.5-3.414a.231.231,0,0,0-.193-.359H26.34a.55.55,0,0,1-.49-.8l4.05-7.875a.792.792,0,0,1,.7-.43H41.637v9.108Z" transform="translate(0 -24.561)" fill="#173841"/>
    <path id="Path_2" data-name="Path 2" d="M118.113,41.153h6.375V50.26h-7.221a12.622,12.622,0,0,1-6.938-1.8.633.633,0,0,0-.775.067,12.362,12.362,0,0,1-8.682,3.037,12.4,12.4,0,0,1-8.631-2.991.627.627,0,0,0-.75-.073,13.242,13.242,0,0,1-6.95,1.763H77.257V41.153h6.376a4.069,4.069,0,0,0,2.927-.846,4.071,4.071,0,0,0,.846-2.928V35.557q0-7.742,4.033-11.971a12.4,12.4,0,0,1,9.434-3.773q6.7,0,10.344,4.879,3.123,4.164,3.188,10.865v1.821a4.167,4.167,0,0,0,.813,2.961,4.051,4.051,0,0,0,2.9.814m-17.24,1.3q4.1,0,4.1-7.091,0-6.7-4.1-6.7-4.035,0-4.034,6.7,0,7.093,4.034,7.091" transform="translate(-38.744 -9.936)" fill="#173841"/>
    <path id="Path_3" data-name="Path 3" d="M165.085,51.8V42.7h6.376a4.07,4.07,0,0,0,2.927-.846,4.071,4.071,0,0,0,.845-2.928V28.285a1.243,1.243,0,0,1,.661-1.1l7.966-4.23a.55.55,0,0,1,.808.485V39.313q0,6.051-3.773,9.5a12.239,12.239,0,0,1-8.523,2.993Z" transform="translate(-82.789 -11.48)" fill="#173841"/>
    <path id="Path_4" data-name="Path 4" d="M230.4,47.447a19.843,19.843,0,0,1-2.277,9.726,14.086,14.086,0,0,1-12.361,7.318,16.977,16.977,0,0,1-8.067-2.1.62.62,0,0,1-.326-.546V54.618a.361.361,0,0,1,.531-.315,13.127,13.127,0,0,0,6.039,1.6,8.367,8.367,0,0,0,2.993-.52Q220.9,54.017,220.9,48.1V28.33a1.212,1.212,0,0,1,.641-1.068l8.053-4.3a.547.547,0,0,1,.8.483Z" transform="translate(-103.993 -11.482)" fill="#173841"/>
    <path id="Path_5" data-name="Path 5" d="M288.079,47.445a19.843,19.843,0,0,1-2.277,9.726,14.086,14.086,0,0,1-12.361,7.318,16.977,16.977,0,0,1-8.067-2.1.621.621,0,0,1-.326-.546V54.616a.361.361,0,0,1,.531-.315,13.127,13.127,0,0,0,6.039,1.6,8.367,8.367,0,0,0,2.993-.52q3.968-1.367,3.969-7.287V28.332a1.217,1.217,0,0,1,.643-1.073l8.053-4.3a.545.545,0,0,1,.8.481Z" transform="translate(-132.92 -11.48)" fill="#173841"/>
    <path id="Path_6" data-name="Path 6" d="M235.322,11.833l8.032-4.291a1.243,1.243,0,0,0,.658-1.1V.7a.7.7,0,0,0-.7-.7h-8.1a.7.7,0,0,0-.7.7V11.349a.55.55,0,0,0,.809.485" transform="translate(-117.606 -0.001)" fill="#173841"/>
    <path id="Path_7" data-name="Path 7" d="M186.123,11.833l8.032-4.291a1.243,1.243,0,0,0,.658-1.1V.7a.7.7,0,0,0-.7-.7h-8.1a.7.7,0,0,0-.7.7V11.349a.55.55,0,0,0,.809.485" transform="translate(-92.933 -0.001)" fill="#173841"/>
    <path id="Path_8" data-name="Path 8" d="M50.97,120.136H44.944a.654.654,0,0,1-.654-.654v-6.026a.654.654,0,0,1,.654-.654H50.97a.654.654,0,0,1,.654.654v6.026a.654.654,0,0,1-.654.654" transform="translate(-22.211 -56.569)" fill="#173841"/>
    <path id="Path_9" data-name="Path 9" d="M32.422,120.136H26.4a.654.654,0,0,1-.654-.654v-6.026a.654.654,0,0,1,.654-.654h6.026a.654.654,0,0,1,.654.654v6.026a.654.654,0,0,1-.654.654" transform="translate(-12.909 -56.569)" fill="#173841"/>
  </g>
</svg>
