<svg xmlns="http://www.w3.org/2000/svg" width="41.068" height="33.826" viewBox="0 0 41.068 33.826">
  <g id="Group_33" data-name="Group 33" transform="translate(0 0)" opacity="0.702">
    <path id="Union_13" data-name="Union 13" d="M.935,32.876a3.277,3.277,0,0,1,0-4.585L12.406,16.638.984,5.035a2.985,2.985,0,0,1,0-4.171,2.872,2.872,0,0,1,4.106,0L17.9,13.879a3.176,3.176,0,0,1,1.039.705,3.279,3.279,0,0,1,0,4.586L5.45,32.876a3.157,3.157,0,0,1-4.514,0Z" transform="translate(0 0)" fill="#011c27"/>
    <path id="Union_14" data-name="Union 14" d="M.935,32.876a3.277,3.277,0,0,1,0-4.585L12.406,16.638.984,5.035a2.985,2.985,0,0,1,0-4.171,2.872,2.872,0,0,1,4.106,0L17.9,13.879a3.176,3.176,0,0,1,1.039.705,3.279,3.279,0,0,1,0,4.586L5.45,32.876a3.157,3.157,0,0,1-4.514,0Z" transform="translate(21.191 0)" fill="#011c27"/>
  </g>
</svg>
