<svg id="Component_3_7" data-name="Component 3 – 7" xmlns="http://www.w3.org/2000/svg" width="39" height="39" viewBox="0 0 39 39">
  <ellipse id="Ellipse_2" data-name="Ellipse 2" cx="19.5" cy="19.5" rx="19.5" ry="19.5" fill="#bf0f0f"/>
  <path id="Union_5" data-name="Union 5" d="M-2116.023,14.924l-3.239-3.239-3.239,3.239a1,1,0,0,1-1.415,0l-2.533-2.533a1,1,0,0,1,0-1.414l3.24-3.239-3.24-3.24a1,1,0,0,1,0-1.415l2.533-2.532a1,1,0,0,1,1.415,0l3.239,3.239,3.24-3.239a1,1,0,0,1,1.414,0l2.533,2.533a1,1,0,0,1,0,1.414l-3.24,3.24,3.24,3.24a1,1,0,0,1,0,1.414l-2.533,2.533a1,1,0,0,1-.707.293A1,1,0,0,1-2116.023,14.924Z" transform="translate(2138.629 11.873)" fill="#fff"/>
</svg>
