<svg xmlns="http://www.w3.org/2000/svg" xmlns:xlink="http://www.w3.org/1999/xlink" width="41.069" height="41.069" viewBox="0 0 41.069 41.069">
  <defs>
    <clipPath id="clip-path">
      <rect id="Rectangle_69" data-name="Rectangle 69" width="41.069" height="41.069" fill="none" stroke="#011c27" stroke-width="3"/>
    </clipPath>
  </defs>
  <g id="Group_9" data-name="Group 9" opacity="0.702" clip-path="url(#clip-path)">
    <path id="Path_160" data-name="Path 160" d="M39.779,20.845v-.911a3.03,3.03,0,0,0-3.029-3.029h0a2.992,2.992,0,0,1-2.8-1.869c-.06-.15-.123-.3-.186-.448a3,3,0,0,1,.654-3.3h0a3.031,3.031,0,0,0,0-4.284l-.645-.644a3.028,3.028,0,0,0-4.284,0,3,3,0,0,1-3.3.655c-.149-.064-.3-.127-.448-.187a3,3,0,0,1-1.87-2.8A3.028,3.028,0,0,0,20.844,1h-.911A3.028,3.028,0,0,0,16.9,4.029a2.994,2.994,0,0,1-1.869,2.8c-.151.06-.3.121-.449.187a3,3,0,0,1-3.3-.656A3.032,3.032,0,0,0,7,6.357L6.357,7a3.031,3.031,0,0,0,0,4.284,3,3,0,0,1,.655,3.3c-.065.149-.126.3-.186.448a2.993,2.993,0,0,1-2.8,1.869A3.03,3.03,0,0,0,1,19.934v.911a3.028,3.028,0,0,0,3.029,3.028,3,3,0,0,1,2.8,1.87c.06.15.12.3.186.448a3,3,0,0,1-.655,3.3,3.03,3.03,0,0,0,0,4.285L7,34.422a3.032,3.032,0,0,0,4.285,0h0a3,3,0,0,1,3.3-.654c.149.064.3.126.449.186a3,3,0,0,1,1.869,2.8,3.029,3.029,0,0,0,3.029,3.029h.911a3.03,3.03,0,0,0,3.029-3.029,3,3,0,0,1,1.869-2.8c.15-.06.3-.121.448-.186a3,3,0,0,1,3.3.654h0a3.03,3.03,0,0,0,4.285,0l.644-.644a3.03,3.03,0,0,0,0-4.285,3,3,0,0,1-.654-3.3c.063-.149.125-.3.184-.449a3,3,0,0,1,2.8-1.869h0A3.03,3.03,0,0,0,39.779,20.845Zm-18.3,7.862a8.388,8.388,0,1,1,7.228-7.227A8.391,8.391,0,0,1,21.478,28.707Z" transform="translate(0.145 0.146)" fill="none" stroke="#011c27" stroke-width="3"/>
  </g>
</svg>
