<svg xmlns="http://www.w3.org/2000/svg" width="20.546" height="33.027" viewBox="0 0 20.546 33.027">
  <g id="Group_17" data-name="Group 17" transform="translate(-1704.727 -196.987)" opacity="0.702">
    <path id="Polygon_1" data-name="Polygon 1" d="M9.26.814a1,1,0,0,1,1.48,0l7.739,8.513A1,1,0,0,1,17.739,11H2.261a1,1,0,0,1-.74-1.673Z" transform="translate(1705 198)" fill="none" stroke="#011c27" stroke-width="3"/>
    <path id="Polygon_2" data-name="Polygon 2" d="M9.26.814a1,1,0,0,1,1.48,0l7.739,8.513A1,1,0,0,1,17.739,11H2.261a1,1,0,0,1-.74-1.673Z" transform="translate(1725 229) rotate(180)" fill="none" stroke="#011c27" stroke-width="3"/>
  </g>
</svg>
