<svg id="Component_4_7" data-name="Component 4 – 7" xmlns="http://www.w3.org/2000/svg" xmlns:xlink="http://www.w3.org/1999/xlink" width="39" height="39" viewBox="0 0 39 39">
  <defs>
    <clipPath id="clip-path">
      <rect id="Rectangle_25" data-name="Rectangle 25" width="14.165" height="19.515" fill="#fcfcfc"/>
    </clipPath>
  </defs>
  <ellipse id="Ellipse_3" data-name="Ellipse 3" cx="19.5" cy="19.5" rx="19.5" ry="19.5" fill="#eaaa42"/>
  <g id="Group_5" data-name="Group 5" transform="translate(12.385 10.367)">
    <g id="Group_4" data-name="Group 4" transform="translate(0 0)" clip-path="url(#clip-path)">
      <path id="Path_54" data-name="Path 54" d="M8.055,14.916H5.8a.605.605,0,0,1-.6-.6v-.3a6.03,6.03,0,0,1,.555-2.759A8.411,8.411,0,0,1,7.971,8.817,16.582,16.582,0,0,0,9.959,7.046a2.369,2.369,0,0,0,.5-1.461,2.461,2.461,0,0,0-.886-1.9,3.452,3.452,0,0,0-2.387-.791,3.614,3.614,0,0,0-2.42.825A4.066,4.066,0,0,0,3.551,5.744a.6.6,0,0,1-.655.424L.537,5.876a.611.611,0,0,1-.529-.7A5.819,5.819,0,0,1,2,1.69,7.308,7.308,0,0,1,7.024,0a7.575,7.575,0,0,1,5.207,1.71,5.18,5.18,0,0,1,1.934,3.983,4.38,4.38,0,0,1-.71,2.381,15.572,15.572,0,0,1-3.036,3.056,5.789,5.789,0,0,0-1.495,1.609,4.2,4.2,0,0,0-.261,1.579.612.612,0,0,1-.607.6" transform="translate(0 0)" fill="#fcfcfc"/>
      <path id="Path_55" data-name="Path 55" d="M14.627,35.408a2.054,2.054,0,1,1-2.055-2.054,2.054,2.054,0,0,1,2.055,2.054" transform="translate(-5.66 -17.947)" fill="#fcfcfc"/>
    </g>
  </g>
</svg>
