<svg id="Component_2_7" data-name="Component 2 – 7" xmlns="http://www.w3.org/2000/svg" width="39" height="39" viewBox="0 0 39 39">
  <ellipse id="Ellipse_1" data-name="Ellipse 1" cx="19.5" cy="19.5" rx="19.5" ry="19.5" fill="#173841"/>
  <path id="Union_1" data-name="Union 1" d="M6.174,12.981,4.613,11.3a.473.473,0,0,1-.043-.053L.544,6.924a.5.5,0,0,1,0-.673l1.61-1.73a.421.421,0,0,1,.626,0L6.539,8.56,13.99.554a.421.421,0,0,1,.626,0l1.562,1.678a.5.5,0,0,1,0,.673L6.8,12.981a.421.421,0,0,1-.626,0Z" transform="translate(11.208 13.609)" fill="#fff"/>
</svg>
